<svg width="28" height="28" viewBox="0 0 28 28" fill="none" xmlns="http://www.w3.org/2000/svg">
<g clip-path="url(#clip0_7551_1231)">
<path d="M20.5333 0.466675C18.8088 0.466675 17.1463 1.10469 15.8666 2.26041C13.8122 0.413811 10.8646 -0.0510288 8.34171 1.0737C5.82064 2.20025 4.19643 4.70492 4.20008 7.46661C4.20008 12.1332 15.8666 26.5998 15.8666 26.5998C15.8666 26.5998 27.5332 12.1332 27.5332 7.46661C27.5332 3.60024 24.3996 0.466675 20.5333 0.466675Z" fill="#FF6243"/>
<path d="M6.06675 14.9332C6.06675 14.6762 5.85711 14.4666 5.60008 14.4666H0.933459C0.676431 14.4666 0.466797 14.6762 0.466797 14.9332V27.0664C0.466797 27.3253 0.676431 27.5331 0.933459 27.5331H6.06675V14.9332Z" fill="#1E81CE"/>
<path d="M21.7254 14.4665H14.4666C14.2096 14.4665 14 14.2587 14 13.9998V8.86653C14 7.83659 13.1651 6.99988 12.1333 6.99988H10.7333C10.4763 6.99988 10.2667 7.20951 10.2667 7.46654V12.5998C10.2667 13.6316 9.43179 14.4665 8.40002 14.4665H7.93336C6.90342 14.4665 6.06671 15.3032 6.06671 16.3331V27.533H21.6726C22.6205 27.533 23.4171 26.8257 23.5283 25.8851L24.5199 17.4651C24.5746 16.6959 24.3103 15.9376 23.7871 15.3725C23.2567 14.7946 22.5093 14.4665 21.7254 14.4665Z" fill="#FFDAAA"/>
<path d="M27.9999 7.46661C28.0035 4.59554 26.3574 1.97603 23.7671 0.732811C21.1768 -0.508584 18.1052 -0.153118 15.8666 1.64791C13.6281 -0.153118 10.5565 -0.508584 7.9662 0.732811C5.37586 1.97603 3.72978 4.59554 3.73342 7.46661C3.73342 9.28951 4.72326 11.621 6.65371 14.3863C6.58262 14.4356 6.51335 14.4902 6.44772 14.5486C6.29824 14.215 5.96648 14.0017 5.60007 13.9999H0.933447C0.417566 13.9999 0.00012207 14.4173 0.00012207 14.9332V27.0664C0.00012207 27.5823 0.417566 27.9998 0.933447 27.9998H21.6726C22.8575 27.9998 23.8528 27.1138 23.9913 25.9399L24.9848 17.4998C25.0377 16.7379 24.8226 15.9832 24.3778 15.3634C26.7785 12.1588 27.9999 9.50278 27.9999 7.46661ZM4.66675 7.46661C4.6631 4.88902 6.17793 2.55207 8.53312 1.50025C10.8865 0.450262 13.6391 0.882289 15.5549 2.60675C15.7336 2.76534 16.0015 2.76534 16.1784 2.60675C18.0942 0.882289 20.8468 0.450262 23.2002 1.50025C25.5554 2.55207 27.0702 4.88902 27.0665 7.46661C27.0665 9.2731 25.9382 11.7012 23.7197 14.6835C23.1473 14.2423 22.4473 14.0017 21.7254 13.9999H14.4667V8.86659C14.4648 7.57963 13.4221 6.5351 12.1333 6.53328H10.7334C10.2175 6.53328 9.80003 6.95072 9.80003 7.46661V12.5999C9.80003 13.3728 9.17296 13.9999 8.40005 13.9999H7.93338C7.80396 14.0017 7.67636 14.0145 7.54875 14.0382C5.642 11.3494 4.66675 9.13638 4.66675 7.46661ZM0.933447 14.9332H5.60007V27.0664H0.933447V14.9332ZM23.0635 25.8305C22.9814 26.536 22.3835 27.0664 21.6726 27.0664H6.5334V16.3332C6.5334 15.5603 7.16047 14.9332 7.93338 14.9332H8.40005C9.68884 14.9314 10.7315 13.8887 10.7334 12.5999V7.46661H12.1333C12.9063 7.46661 13.5333 8.09368 13.5333 8.86659V13.9999C13.5333 14.5158 13.9508 14.9332 14.4667 14.9332H21.7254C22.3708 14.9332 22.9851 15.1993 23.428 15.6678C23.8692 16.1381 24.0952 16.7689 24.0551 17.4123L23.0635 25.8305Z" fill="#3E3D42"/>
</g>
<defs>
<clipPath id="clip0_7551_1231">
<rect width="28" height="28" fill="white"/>
</clipPath>
</defs>
</svg>
