<svg width="41" height="40" viewBox="0 0 41 40" fill="none" xmlns="http://www.w3.org/2000/svg">
<path d="M22.8749 23.7332C26.7531 22.7443 29.6362 19.2546 30.0492 15.0495L31.1435 3.92117H9.77993L10.872 15.0496C11.2851 19.2546 14.1682 22.7443 18.0463 23.7332C18.4852 23.8452 18.7813 24.2548 18.7499 24.7066C18.5867 27.0544 17.8927 29.3598 16.6839 31.5798H24.2384C23.0309 29.3598 22.3366 27.0548 22.1713 24.7075C22.1395 24.2554 22.4358 23.8452 22.8749 23.7332ZM20.4616 17.3985L17.7306 18.7417C17.4184 18.8955 17.047 18.8634 16.7656 18.6588C16.4842 18.4544 16.3392 18.1109 16.3889 17.7666L16.8232 14.7564L14.7027 12.5767C14.4602 12.3275 14.3756 11.9644 14.4831 11.6336C14.5904 11.3028 14.8721 11.0587 15.2148 10.9993L18.2129 10.4802L19.6325 7.7893C19.7948 7.48172 20.114 7.2893 20.4617 7.2893C20.8095 7.2893 21.1291 7.48211 21.2912 7.78984L22.7084 10.4803L25.7063 10.9994C26.0489 11.0588 26.3306 11.3029 26.438 11.6337C26.5454 11.9645 26.4608 12.3276 26.2183 12.5768L24.0978 14.7565L24.532 17.7666C24.5817 18.111 24.4366 18.4545 24.1552 18.659C23.992 18.7776 23.7986 18.838 23.604 18.838C23.4629 18.838 23.3213 18.8062 23.1901 18.7417L20.4616 17.3985ZM22.4321 13.7799C22.2292 13.9885 22.1347 14.2795 22.1763 14.5675L22.4224 16.2738L20.8759 15.5126C20.615 15.3841 20.3092 15.3841 20.0481 15.5126L18.4988 16.2746L18.745 14.5676C18.7866 14.2795 18.692 13.9886 18.4891 13.78L17.2864 12.5437L18.9872 12.2491C19.2736 12.1995 19.5208 12.0198 19.6564 11.7628L20.4613 10.2372L21.2646 11.7623C21.4002 12.0196 21.6475 12.1995 21.9341 12.2491L23.6349 12.5436L22.4321 13.7799ZM32.1234 2.04609H8.80024V0.625H32.1234L32.1234 2.04609ZM27.7098 34.0177V34.5831H13.2113V34.0177C13.2113 33.7126 13.4702 33.4548 13.7766 33.4548H27.1467C27.4519 33.4548 27.7098 33.7126 27.7098 34.0177ZM12.2738 36.4581H30.6814V39.3749H10.2397V36.4581H12.2738ZM39.629 10.9194C38.6384 16.8252 36.0053 20.6231 29.8942 21.5112L29.3885 21.5846C30.2144 20.5341 30.8544 19.3551 31.2914 18.09C34.6898 16.9779 35.9854 14.3166 36.6379 10.4205C36.7691 9.63984 36.9482 8.49398 36.7691 7.71344C36.6307 7.11664 36.3227 6.93047 35.7188 6.93047H32.7316L33.0297 3.89883H35.7188C37.7479 3.89883 39.2662 5.05656 39.7221 7.0307C40.0109 8.28156 39.8391 9.66852 39.629 10.9194ZM11.105 21.5112C4.99392 20.6231 2.36087 16.8252 1.37259 10.9194C1.16251 9.66852 0.98829 8.28156 1.27712 7.0307C1.73306 5.05656 3.25134 3.89883 5.2804 3.89883H7.89376L8.19126 6.93047H5.20399C4.60009 6.93047 4.29212 7.11672 4.15602 7.71344C3.97462 8.49398 4.15602 9.63984 4.28493 10.4205C4.93727 14.3156 6.23431 16.9765 9.62946 18.0891C10.0646 19.3494 10.7013 20.5243 11.5224 21.5717L11.105 21.5112Z" fill="#FFB900"/>
</svg>
