<svg width="42" height="42" viewBox="0 0 42 42" fill="none" xmlns="http://www.w3.org/2000/svg">
<rect width="42" height="42" rx="21" fill="white"/>
<path d="M21.6286 9.3L31.8429 19.8C32 19.95 32 20.25 32 20.55C31.8429 20.85 31.5286 21 31.2143 21H25.7143V32.25C25.7143 32.7 25.4 33 24.9286 33H17.0714C16.6 33 16.2857 32.7 16.2857 32.25V21H10.7857C10.4714 21 10.1571 20.85 10 20.55C10 20.25 10 19.95 10.1571 19.8L20.3714 9.3C20.5286 9.15 20.8429 9 21 9C21.1571 9 21.4714 9.15 21.6286 9.3Z" fill="url(#paint0_linear_7593_3138)"/>
<defs>
<linearGradient id="paint0_linear_7593_3138" x1="10" y1="22.8387" x2="32.1244" y2="22.8071" gradientUnits="userSpaceOnUse">
<stop stop-color="#B436E0"/>
<stop offset="1" stop-color="#365CE0"/>
</linearGradient>
</defs>
</svg>
