<svg width="28" height="28" viewBox="0 0 28 28" fill="none" xmlns="http://www.w3.org/2000/svg">
<g filter="url(#filter0_d_7551_3280)">
<rect width="24" height="24" rx="12" transform="matrix(1 0 0 -1 2 25)" fill="url(#paint0_linear_7551_3280)"/>
<path d="M19.9176 10.7733L14.3471 17.8377C14.3074 17.8879 14.2552 17.9289 14.1949 17.9571C14.1345 17.9853 14.0677 18 14 18C13.9323 18 13.8655 17.9853 13.8051 17.9571C13.7448 17.9289 13.6926 17.8879 13.6529 17.8377L8.0824 10.7733C8.0354 10.7143 8.00729 10.6445 8.00124 10.5717C7.99518 10.4989 8.01142 10.426 8.04812 10.3612C8.08431 10.2972 8.13905 10.2435 8.20632 10.2062C8.27359 10.1688 8.3508 10.1491 8.42948 10.1492H19.5705C19.6492 10.1491 19.7264 10.1688 19.7937 10.2062C19.861 10.2435 19.9157 10.2972 19.9519 10.3612C19.9886 10.426 20.0048 10.4989 19.9988 10.5717C19.9927 10.6445 19.9646 10.7143 19.9176 10.7733Z" fill="white"/>
</g>
<defs>
<filter id="filter0_d_7551_3280" x="0" y="0" width="28" height="28" filterUnits="userSpaceOnUse" color-interpolation-filters="sRGB">
<feFlood flood-opacity="0" result="BackgroundImageFix"/>
<feColorMatrix in="SourceAlpha" type="matrix" values="0 0 0 0 0 0 0 0 0 0 0 0 0 0 0 0 0 0 127 0" result="hardAlpha"/>
<feOffset dy="1"/>
<feGaussianBlur stdDeviation="1"/>
<feColorMatrix type="matrix" values="0 0 0 0 0 0 0 0 0 0 0 0 0 0 0 0 0 0 0.3 0"/>
<feBlend mode="normal" in2="BackgroundImageFix" result="effect1_dropShadow_7551_3280"/>
<feBlend mode="normal" in="SourceGraphic" in2="effect1_dropShadow_7551_3280" result="shape"/>
</filter>
<linearGradient id="paint0_linear_7551_3280" x1="-5.98086e-09" y1="13.8387" x2="24.1357" y2="13.8011" gradientUnits="userSpaceOnUse">
<stop stop-color="#B436E0"/>
<stop offset="1" stop-color="#365CE0"/>
</linearGradient>
</defs>
</svg>
