<svg width="12" height="12" viewBox="0 0 12 12" fill="none" xmlns="http://www.w3.org/2000/svg">
<path d="M5.98581 9.51507C5.82228 9.51527 5.66058 9.48059 5.51151 9.41334C5.36244 9.34609 5.22942 9.24782 5.12135 9.12509L0.216053 3.54932C0.0610142 3.36455 -0.0155824 3.12646 0.00264165 2.88595C0.0208657 2.64545 0.132464 2.42161 0.313574 2.26232C0.494683 2.10302 0.730929 2.02091 0.971795 2.03353C1.21266 2.04615 1.43903 2.15251 1.6025 2.32987L5.89182 7.20567C5.90355 7.21905 5.918 7.22977 5.93421 7.23712C5.95042 7.24447 5.96801 7.24827 5.98581 7.24827C6.00361 7.24827 6.0212 7.24447 6.03741 7.23712C6.05362 7.22977 6.06808 7.21905 6.07981 7.20567L10.3691 2.32987C10.4482 2.23559 10.5454 2.15807 10.6549 2.10187C10.7644 2.04568 10.884 2.01194 11.0068 2.00264C11.1295 1.99334 11.2528 2.00867 11.3696 2.04772C11.4863 2.08678 11.594 2.14877 11.6864 2.23005C11.7788 2.31134 11.8541 2.41028 11.9077 2.52106C11.9613 2.63184 11.9923 2.75222 11.9987 2.87513C12.0052 2.99804 11.987 3.121 11.9452 3.23678C11.9035 3.35255 11.839 3.45882 11.7556 3.54932L6.85178 9.12309C6.74351 9.24612 6.6103 9.34471 6.46099 9.41229C6.31168 9.47988 6.1497 9.51491 5.98581 9.51507Z" fill="#4D3C6A"/>
</svg>
